<svg width="21" height="28" viewBox="0 0 21 28" fill="none" xmlns="http://www.w3.org/2000/svg">
<path d="M7.48355 7.99166C7.49222 8.00278 7.50778 8.00278 7.51645 7.99166L7.96218 7.41967C7.97435 7.40405 7.96435 7.37979 7.94573 7.37979H7.05427C7.03565 7.37979 7.02565 7.40405 7.03782 7.41967L7.48355 7.99166Z" fill="white"/>
<path d="M8 7.2773C8 7.43045 7.8832 7.55461 7.73913 7.55461C7.59506 7.55461 7.47826 7.43045 7.47826 7.2773C7.47826 7.12415 7.59506 7 7.73913 7C7.8832 7 8 7.12415 8 7.2773Z" fill="white"/>
<path d="M7.52174 7.2773C7.52174 7.43045 7.40494 7.55461 7.26087 7.55461C7.1168 7.55461 7 7.43045 7 7.2773C7 7.12415 7.1168 7 7.26087 7C7.40494 7 7.52174 7.12415 7.52174 7.2773Z" fill="white"/>
<path fill-rule="evenodd" clip-rule="evenodd" d="M3.50623 13.4475C2.69939 14.3591 2.21053 15.6047 2.21053 16.905C2.21053 17.6595 2.35667 18.3814 2.61396 19.0688H7.41366L9.28598 16.1134L10.456 19.7491L11.8876 18.1147H15.4737V19.0961H12.4282L9.99141 21.8778L8.95086 18.6441L8.06002 20.0501H0V19.0688H1.45666C1.23255 18.3825 1.10526 17.66 1.10526 16.905C1.10526 15.396 1.66963 13.9344 2.63717 12.8412C3.60736 11.745 5.00469 11 6.64882 11C8.58502 11 10.0574 11.9634 11.0526 13.3227C12.0478 11.9634 13.5202 11 15.4564 11C17.1007 11 18.4981 11.7451 19.4682 12.8413C20.4357 13.9347 21 15.3963 21 16.905C21 20.1348 18.489 22.832 16.1134 24.6731C14.912 25.6041 13.7132 26.3411 12.816 26.845C12.3668 27.0973 11.9917 27.292 11.7278 27.4242C11.5958 27.4902 11.4914 27.5408 11.4194 27.5751C11.3834 27.5923 11.3554 27.6054 11.3361 27.6143L11.3137 27.6247L11.3074 27.6275L11.3056 27.6284L11.305 27.6287C11.305 27.6287 11.3046 27.6289 11.0526 27.1922C10.8129 27.6343 10.8127 27.6342 10.8127 27.6342L10.8094 27.6328L10.8017 27.6295L10.7738 27.6173C10.7498 27.6067 10.7151 27.5913 10.6704 27.5711C10.5811 27.5307 10.4521 27.4711 10.2898 27.3929C9.96527 27.2366 9.50703 27.0057 8.96689 26.7048C7.88859 26.1042 6.47413 25.2198 5.144 24.0882C4.43448 23.4846 3.74535 22.8077 3.14314 22.0627C2.96518 21.8426 3.02192 21.536 3.26988 21.378C3.51783 21.22 3.86312 21.2704 4.04106 21.4906C4.59618 22.1773 5.23795 22.8091 5.90863 23.3796C7.16807 24.451 8.51677 25.2957 9.55423 25.8735C10.072 26.1619 10.5098 26.3824 10.8168 26.5303C10.904 26.5723 10.9806 26.6084 11.0453 26.6385C11.0871 26.6181 11.1336 26.595 11.1849 26.5694C11.4347 26.4443 11.7935 26.2581 12.2251 26.0157C13.0894 25.5303 14.2393 24.8229 15.3866 23.9337C17.7084 22.1344 19.8947 19.688 19.8947 16.905C19.8947 15.6049 19.4059 14.3593 18.5991 13.4477C17.795 12.539 16.6969 11.9813 15.4564 11.9813C13.7417 11.9813 12.4118 12.9729 11.5487 14.5337L11.0526 15.4308L10.5566 14.5337C9.69343 12.9728 8.36347 11.9813 6.64882 11.9813C5.40849 11.9813 4.31036 12.5389 3.50623 13.4475ZM11.0526 27.1922L10.8127 27.6342L11.0603 27.74L11.305 27.6287L11.0526 27.1922Z" fill="white"/>
<path fill-rule="evenodd" clip-rule="evenodd" d="M18.0002 7.62712C18.0002 8.64667 17.8166 9.61949 17.4835 10.5085H4.51674C4.1836 9.61949 4 8.64667 4 7.62712C4 3.41478 7.13405 0 11.0001 0C14.8661 0 18.0002 3.41478 18.0002 7.62712ZM7.68426 5.08475H5.84213V6.77966C5.84213 7.90295 6.83183 8.81356 8.05269 8.81356H9.89482V7.11865C9.89482 5.99536 8.90512 5.08475 7.68426 5.08475ZM16.1581 5.08475H14.3159C13.0951 5.08475 12.1054 5.99536 12.1054 7.11865V8.81356H13.9475C15.1684 8.81356 16.1581 7.90295 16.1581 6.77966V5.08475Z" fill="white"/>
<path d="M9.71061 11.5254C10.2257 11.5254 10.6702 11.8033 10.8768 12.2049C10.9176 12.2039 10.9587 12.2034 11.0001 12.2034C11.0415 12.2034 11.0826 12.2039 11.1234 12.2049C11.33 11.8033 11.7745 11.5254 12.2896 11.5254C13.0018 11.5254 13.5791 12.0566 13.5791 12.7119C13.5791 13.1872 13.2752 13.5973 12.8365 13.7866C12.4397 14.0584 11.7653 14.2373 11.0001 14.2373C10.2349 14.2373 9.5605 14.0584 9.16369 13.7866C8.72495 13.5973 8.42111 13.1872 8.42111 12.7119C8.42111 12.0566 8.99844 11.5254 9.71061 11.5254Z" fill="white"/>
<path d="M14.4836 7.99166C14.4922 8.00278 14.5078 8.00278 14.5164 7.99166L14.9622 7.41967C14.9744 7.40405 14.9643 7.37979 14.9457 7.37979H14.0543C14.0357 7.37979 14.0256 7.40405 14.0378 7.41967L14.4836 7.99166Z" fill="white"/>
<path d="M15 7.2773C15 7.43045 14.8832 7.55461 14.7391 7.55461C14.5951 7.55461 14.4783 7.43045 14.4783 7.2773C14.4783 7.12415 14.5951 7 14.7391 7C14.8832 7 15 7.12415 15 7.2773Z" fill="white"/>
<path d="M14.5217 7.2773C14.5217 7.43045 14.4049 7.55461 14.2609 7.55461C14.1168 7.55461 14 7.43045 14 7.2773C14 7.12415 14.1168 7 14.2609 7C14.4049 7 14.5217 7.12415 14.5217 7.2773Z" fill="white"/>
</svg>
